<svg width="45" height="35" viewBox="0 0 45 35" fill="none" xmlns="http://www.w3.org/2000/svg">
<path d="M44.6019 26.7953C43.7191 27.9134 41.5707 28.7087 41.5707 28.7087L25.548 34.5039V30.2283L37.3366 25.9921C38.6724 25.5118 38.8834 24.8268 37.7897 24.4646C36.7038 24.1024 34.7351 24.2047 33.3992 24.6929L25.548 27.4882V23.0472C27.3604 22.4331 29.2275 21.9764 31.4618 21.7244C34.657 21.3701 38.5631 21.7717 41.6332 22.9449C45.0862 24.0472 45.4768 25.6772 44.6019 26.7953ZM27.0714 19.5118V8.56693C27.0714 7.28346 26.837 6.10236 25.6418 5.76378C24.7277 5.46457 24.1575 6.32283 24.1575 7.6063V35L16.8297 32.6535V0C19.9467 0.582677 24.4856 1.96063 26.923 2.7874C33.1336 4.93701 35.2351 7.61417 35.2351 13.6378C35.2351 19.5039 31.6415 21.7323 27.0714 19.5118ZM3.37713 29.7795C-0.169585 28.7717 -0.763309 26.6693 0.853807 25.4646C2.34593 24.3465 4.89269 23.5039 4.89269 23.5039L15.4 19.7402V24.0315L7.83787 26.7559C6.50199 27.2362 6.29888 27.9213 7.38477 28.2835C8.47066 28.6457 10.4393 28.5433 11.7752 28.0551L15.4 26.7244V30.5669C11.369 31.2992 7.47851 31.1417 3.37713 29.7795Z" fill="white"/>
</svg>
